<?xml version="1.0" encoding="UTF-8"?> <svg width="159px" height="20px" viewBox="0 0 159 20" version="1.1" xmlns="http://www.w3.org/2000/svg" xmlns:xlink="http://www.w3.org/1999/xlink"> <!-- Generator: Sketch 46.2 (44496) - http://www.bohemiancoding.com/sketch --> <title>Logo</title> <desc>Created with Sketch.</desc> <defs></defs> <g id="nav" stroke="none" stroke-width="1" fill="none" fill-rule="evenodd"> <g id="Main_nav" transform="translate(-51.000000, -27.000000)"> <g id="Header"> <g id="Logo" transform="translate(51.000000, 27.000000)"> <path d="M0,4.51517241 L3.55356884,3.23310345 L3.55356884,5.02689655 C4.41860507,3.86206897 5.61097101,3 7.45730435,3 C10.3790507,3 13.1610072,5.28275862 13.1610072,9.49931034 C13.1610072,13.6696552 10.4261087,15.9524138 7.45730435,15.9524138 C5.56391304,15.9524138 4.39507609,15.0910345 3.55356884,14.0889655 L3.52242754,19.7613793 L0,19.7613793 L0,4.51517241 Z M9.60813043,9.45310345 C9.60813043,7.37931034 8.20538768,6.00482759 6.54521014,6.00482759 C4.88572464,6.00482759 3.50651087,7.37931034 3.50651087,9.49931034 C3.50651087,11.5731034 4.88572464,12.9475862 6.54521014,12.9475862 C8.20538768,12.9475862 9.60813043,11.5965517 9.60813043,9.45310345 L9.60813043,9.45310345 Z" id="Shape" fill="#FE0605"></path> <path d="M29,3.03278145 L32.5535688,3.03278145 L32.5535688,5.06519525 C33.2781232,3.34105732 34.4469601,2.91898835 36.5507283,3.0120918 L36.5507283,6.05898835 L36.3638804,6.05898835 C34.0026775,6.05898835 32.5535688,7.92519525 32.5535688,10.9072642 L32.5535688,15.519678 L29,15.519678 L29,3.03278145 Z" id="Shape" fill="#FE0605"></path> <path d="M39.4961667,12.1903448 L39.4961667,6.27310345 L38,6.27310345 L38,3.24413793 L39.4961667,3.24413793 L39.4961667,1.28551724 L43.0497355,0 L43.0497355,3.24413793 L45.9950109,3.24413793 L45.9950109,6.27310345 L43.0497355,6.27310345 L43.0497355,11.6082759 C43.0497355,12.4234483 43.3999022,12.8193103 44.1950435,12.8193103 C44.8497029,12.8193103 45.4337754,12.6558621 45.9479529,12.3765517 L45.9479529,15.2186207 C45.2005616,15.6613793 44.3348333,15.9406897 43.1431594,15.9406897 C40.9688043,15.9406897 39.4961667,15.0793103 39.4961667,12.1903448" id="Shape" fill="#FE0605"></path> <path d="M48,3.23310345 L51.5535688,3.23310345 L51.5535688,5.00344828 C52.3715471,3.95517241 53.4476522,3 55.2469275,3 C56.8835761,3 58.123,3.72206897 58.7769674,4.98068966 C59.8759094,3.69931034 61.1845362,3 62.8910797,3 C65.5325543,3 67.1221449,4.58413793 67.1221449,7.58965517 L67.1221449,15.72 L63.5692681,15.72 L63.5692681,8.75448276 C63.5692681,7.07724138 62.8211848,6.21517241 61.488337,6.21517241 C60.1561812,6.21517241 59.3375109,7.07724138 59.3375109,8.75448276 L59.3375109,15.72 L55.7853261,15.72 L55.7853261,8.75448276 C55.7853261,7.07724138 55.0365507,6.21517241 53.7043949,6.21517241 C52.3715471,6.21517241 51.5535688,7.07724138 51.5535688,8.75448276 L51.5535688,15.72 L48,15.72 L48,3.23310345 L48,3.23310345 Z" id="Shape" fill="#FE0605"></path> <path d="M82,3.23310345 L85.5535688,3.23310345 L85.5535688,5.00344828 C86.3715471,3.95517241 87.4241232,3 89.2240906,3 C91.9119312,3 93.4779928,4.77034483 93.4779928,7.63655172 L93.4779928,15.72 L89.9251159,15.72 L89.9251159,8.75448276 C89.9251159,7.07724138 89.1306667,6.21517241 87.7749819,6.21517241 C86.4186051,6.21517241 85.5535688,7.07724138 85.5535688,8.75448276 L85.5535688,15.72 L82,15.72 L82,3.23310345 L82,3.23310345 Z" id="Shape" fill="#FE0605"></path> <path d="M95,9.49931034 C95,5.93517241 97.5480507,3 101.195043,3 C105.379743,3 107.295971,6.23793103 107.295971,9.77931034 C107.295971,10.0586207 107.272442,10.3848276 107.248913,10.7110345 L98.5300399,10.7110345 C98.8808986,12.3186207 100.002678,13.1572414 101.592268,13.1572414 C102.784634,13.1572414 103.64967,12.7841379 104.630967,11.8758621 C104.630967,11.8758621 105.342373,13.8103448 105.651018,14.6751724 C104.583909,15.5137931 103.225457,15.9993103 101.545902,15.9993103 C97.7819565,15.9993103 95,13.3668966 95,9.49931034 L95,9.49931034 Z M103.836518,8.49793103 C103.626141,6.9137931 102.69121,5.84206897 101.195043,5.84206897 C99.7224058,5.84206897 98.7632536,6.89034483 98.4829819,8.49793103 L103.836518,8.49793103 Z" id="Shape" fill="#FE0605"></path> <path d="M113,9.49931034 C113,5.93517241 115.735591,3 119.569431,3 C121.317496,3 122.565917,3.48551724 123.570743,4.26689655 C123.30362,4.96344828 122.467649,7.2862069 122.467649,7.2862069 C121.696036,6.56413793 120.947953,6.05172414 119.545902,6.05172414 C117.768772,6.05172414 116.506511,7.61241379 116.506511,9.49931034 C116.506511,11.4096552 117.745935,12.9468966 119.685692,12.9468966 C120.878058,12.9468966 121.696036,12.4351724 122.561764,11.6193103 C122.561764,11.6193103 123.479395,14.1510345 123.665551,14.6448276 C122.644116,15.4668966 121.389467,15.9993103 119.522373,15.9993103 C115.75912,15.9993103 113,13.1103448 113,9.49931034" id="Shape" fill="#CDCDCD"></path> <path d="M139,3.23310345 L142.553569,3.23310345 L142.553569,5.00344828 C143.371547,3.95517241 144.44696,3 146.246928,3 C147.883576,3 149.123,3.72206897 149.776967,4.98068966 C150.875909,3.69931034 152.184536,3 153.89108,3 C156.532554,3 158.122145,4.58413793 158.122145,7.58965517 L158.122145,15.72 L154.569268,15.72 L154.569268,8.75448276 C154.569268,7.07724138 153.821185,6.21517241 152.488337,6.21517241 C151.156181,6.21517241 150.337511,7.07724138 150.337511,8.75448276 L150.337511,15.72 L146.785326,15.72 L146.785326,8.75448276 C146.785326,7.07724138 146.036551,6.21517241 144.704395,6.21517241 C143.371547,6.21517241 142.553569,7.07724138 142.553569,8.75448276 L142.553569,15.72 L139,15.72 L139,3.23310345 L139,3.23310345 Z" id="Shape" fill="#CDCDCD"></path> <path d="M111.738341,13.9765517 C111.738341,15.0682759 110.901678,15.9531034 109.86917,15.9531034 C108.836663,15.9531034 108,15.0682759 108,13.9765517 C108,12.8848276 108.836663,12 109.86917,12 C110.901678,12 111.738341,12.8848276 111.738341,13.9765517" id="Shape" fill="#CDCDCD"></path> <path d="M20.6026486,16.16 C16.9618841,16.16 14,13.2082759 14,9.58 C14,5.95172414 16.9618841,3 20.6026486,3 C24.243413,3 27.2052971,5.95172414 27.2052971,9.58 C27.2052971,13.2082759 24.243413,16.16 20.6026486,16.16 M20.6026486,6.44896552 C18.869808,6.44896552 17.460837,7.85310345 17.460837,9.58 C17.460837,11.3062069 18.869808,12.7110345 20.6026486,12.7110345 C22.3347971,12.7110345 23.7444601,11.3062069 23.7444601,9.58 C23.7444601,7.85310345 22.3347971,6.44896552 20.6026486,6.44896552" id="Shape" fill="#FE0605"></path> <path d="M74.6026486,16.16 C70.9618841,16.16 68,13.2082759 68,9.58 C68,5.95172414 70.9618841,3 74.6026486,3 C78.243413,3 81.2052971,5.95172414 81.2052971,9.58 C81.2052971,13.2082759 78.243413,16.16 74.6026486,16.16 M74.6026486,6.44896552 C72.8705,6.44896552 71.460837,7.85310345 71.460837,9.58 C71.460837,11.3062069 72.8705,12.7110345 74.6026486,12.7110345 C76.3354891,12.7110345 77.7444601,11.3062069 77.7444601,9.58 C77.7444601,7.85310345 76.3354891,6.44896552 74.6026486,6.44896552" id="Shape" fill="#FE0605"></path> <path d="M130.602649,16.16 C126.961884,16.16 124,13.2082759 124,9.58 C124,5.95172414 126.961884,3 130.602649,3 C134.243413,3 137.205297,5.95172414 137.205297,9.58 C137.205297,13.2082759 134.243413,16.16 130.602649,16.16 M130.602649,6.44896552 C128.869808,6.44896552 127.460837,7.85310345 127.460837,9.58 C127.460837,11.3062069 128.869808,12.7110345 130.602649,12.7110345 C132.334797,12.7110345 133.74446,11.3062069 133.74446,9.58 C133.74446,7.85310345 132.334797,6.44896552 130.602649,6.44896552" id="Shape" fill="#CDCDCD"></path> </g> </g> </g> </g> </svg>